<mxfile host="app.diagrams.net" modified="2023-07-28T03:56:58.144Z" agent="Mozilla/5.0 (Macintosh; Intel Mac OS X 10_15_7) AppleWebKit/537.36 (KHTML, like Gecko) Chrome/114.0.0.0 Safari/537.36" etag="f68LIIH3rAnY-DztkZNJ" version="21.6.2" type="github">
  <diagram name="第 1 页" id="-lybGAEBKCiU5WJKgEIq">
    <mxGraphModel dx="1060" dy="558" grid="1" gridSize="10" guides="1" tooltips="1" connect="1" arrows="1" fold="1" page="1" pageScale="1" pageWidth="3300" pageHeight="4681" math="0" shadow="0">
      <root>
        <mxCell id="0" />
        <mxCell id="1" parent="0" />
        <mxCell id="W3CRCIAu7P1YZQJP_AFo-12" value="kafka&lt;br&gt;状态1.0 workState" style="rounded=0;whiteSpace=wrap;html=1;" vertex="1" parent="1">
          <mxGeometry x="30" y="90" width="120" height="60" as="geometry" />
        </mxCell>
        <mxCell id="W3CRCIAu7P1YZQJP_AFo-13" value="kafka&lt;br&gt;在离线状态" style="rounded=0;whiteSpace=wrap;html=1;" vertex="1" parent="1">
          <mxGeometry x="20" y="340" width="120" height="60" as="geometry" />
        </mxCell>
        <mxCell id="W3CRCIAu7P1YZQJP_AFo-15" value="离线" style="shape=process;whiteSpace=wrap;html=1;backgroundOutline=1;" vertex="1" parent="1">
          <mxGeometry x="230" y="140" width="120" height="60" as="geometry" />
        </mxCell>
        <mxCell id="W3CRCIAu7P1YZQJP_AFo-16" value="实时" style="shape=process;whiteSpace=wrap;html=1;backgroundOutline=1;" vertex="1" parent="1">
          <mxGeometry x="230" y="320" width="120" height="60" as="geometry" />
        </mxCell>
        <mxCell id="W3CRCIAu7P1YZQJP_AFo-17" value="离线表&lt;br&gt;实时表" style="shape=cylinder3;whiteSpace=wrap;html=1;boundedLbl=1;backgroundOutline=1;size=15;" vertex="1" parent="1">
          <mxGeometry x="420" y="100" width="130" height="100" as="geometry" />
        </mxCell>
        <mxCell id="W3CRCIAu7P1YZQJP_AFo-18" value="doris" style="text;html=1;strokeColor=none;fillColor=none;align=center;verticalAlign=middle;whiteSpace=wrap;rounded=0;" vertex="1" parent="1">
          <mxGeometry x="455" y="50" width="60" height="30" as="geometry" />
        </mxCell>
        <mxCell id="W3CRCIAu7P1YZQJP_AFo-19" value="离线表&lt;br&gt;实时表" style="shape=cylinder3;whiteSpace=wrap;html=1;boundedLbl=1;backgroundOutline=1;size=15;" vertex="1" parent="1">
          <mxGeometry x="420" y="300" width="130" height="100" as="geometry" />
        </mxCell>
        <mxCell id="W3CRCIAu7P1YZQJP_AFo-20" value="mysql" style="text;html=1;strokeColor=none;fillColor=none;align=center;verticalAlign=middle;whiteSpace=wrap;rounded=0;" vertex="1" parent="1">
          <mxGeometry x="458" y="250" width="60" height="30" as="geometry" />
        </mxCell>
        <mxCell id="W3CRCIAu7P1YZQJP_AFo-21" value="" style="endArrow=classic;html=1;rounded=0;exitX=0.991;exitY=0.626;exitDx=0;exitDy=0;exitPerimeter=0;entryX=0;entryY=0.5;entryDx=0;entryDy=0;" edge="1" parent="1" source="W3CRCIAu7P1YZQJP_AFo-12" target="W3CRCIAu7P1YZQJP_AFo-15">
          <mxGeometry width="50" height="50" relative="1" as="geometry">
            <mxPoint x="400" y="320" as="sourcePoint" />
            <mxPoint x="450" y="270" as="targetPoint" />
          </mxGeometry>
        </mxCell>
        <mxCell id="W3CRCIAu7P1YZQJP_AFo-22" value="" style="endArrow=classic;html=1;rounded=0;exitX=1;exitY=0.5;exitDx=0;exitDy=0;entryX=0;entryY=0.5;entryDx=0;entryDy=0;" edge="1" parent="1" target="W3CRCIAu7P1YZQJP_AFo-16">
          <mxGeometry width="50" height="50" relative="1" as="geometry">
            <mxPoint x="150" y="130" as="sourcePoint" />
            <mxPoint x="210" y="300" as="targetPoint" />
          </mxGeometry>
        </mxCell>
        <mxCell id="W3CRCIAu7P1YZQJP_AFo-23" value="" style="endArrow=classic;html=1;rounded=0;exitX=1;exitY=0.5;exitDx=0;exitDy=0;entryX=-0.037;entryY=0.626;entryDx=0;entryDy=0;entryPerimeter=0;" edge="1" parent="1" source="W3CRCIAu7P1YZQJP_AFo-13" target="W3CRCIAu7P1YZQJP_AFo-15">
          <mxGeometry width="50" height="50" relative="1" as="geometry">
            <mxPoint x="400" y="320" as="sourcePoint" />
            <mxPoint x="450" y="270" as="targetPoint" />
          </mxGeometry>
        </mxCell>
        <mxCell id="W3CRCIAu7P1YZQJP_AFo-25" value="" style="endArrow=classic;html=1;rounded=0;exitX=1;exitY=0.5;exitDx=0;exitDy=0;entryX=0;entryY=0.5;entryDx=0;entryDy=0;" edge="1" parent="1" source="W3CRCIAu7P1YZQJP_AFo-13" target="W3CRCIAu7P1YZQJP_AFo-16">
          <mxGeometry width="50" height="50" relative="1" as="geometry">
            <mxPoint x="150" y="380" as="sourcePoint" />
            <mxPoint x="236" y="188" as="targetPoint" />
          </mxGeometry>
        </mxCell>
        <mxCell id="W3CRCIAu7P1YZQJP_AFo-26" value="" style="endArrow=classic;html=1;rounded=0;exitX=1;exitY=0.5;exitDx=0;exitDy=0;entryX=-0.026;entryY=0.576;entryDx=0;entryDy=0;entryPerimeter=0;" edge="1" parent="1" source="W3CRCIAu7P1YZQJP_AFo-15" target="W3CRCIAu7P1YZQJP_AFo-17">
          <mxGeometry width="50" height="50" relative="1" as="geometry">
            <mxPoint x="640" y="240" as="sourcePoint" />
            <mxPoint x="690" y="190" as="targetPoint" />
          </mxGeometry>
        </mxCell>
        <mxCell id="W3CRCIAu7P1YZQJP_AFo-27" value="" style="endArrow=classic;html=1;rounded=0;exitX=1;exitY=0.5;exitDx=0;exitDy=0;entryX=0;entryY=0;entryDx=0;entryDy=67.5;entryPerimeter=0;" edge="1" parent="1" source="W3CRCIAu7P1YZQJP_AFo-16" target="W3CRCIAu7P1YZQJP_AFo-17">
          <mxGeometry width="50" height="50" relative="1" as="geometry">
            <mxPoint x="400" y="320" as="sourcePoint" />
            <mxPoint x="450" y="270" as="targetPoint" />
          </mxGeometry>
        </mxCell>
        <mxCell id="W3CRCIAu7P1YZQJP_AFo-28" value="" style="endArrow=classic;html=1;rounded=0;exitX=1;exitY=0.644;exitDx=0;exitDy=0;exitPerimeter=0;entryX=-0.017;entryY=0.576;entryDx=0;entryDy=0;entryPerimeter=0;" edge="1" parent="1" source="W3CRCIAu7P1YZQJP_AFo-15" target="W3CRCIAu7P1YZQJP_AFo-19">
          <mxGeometry width="50" height="50" relative="1" as="geometry">
            <mxPoint x="400" y="320" as="sourcePoint" />
            <mxPoint x="450" y="270" as="targetPoint" />
          </mxGeometry>
        </mxCell>
        <mxCell id="W3CRCIAu7P1YZQJP_AFo-29" value="" style="endArrow=classic;html=1;rounded=0;entryX=0;entryY=0.598;entryDx=0;entryDy=0;entryPerimeter=0;" edge="1" parent="1" target="W3CRCIAu7P1YZQJP_AFo-19">
          <mxGeometry width="50" height="50" relative="1" as="geometry">
            <mxPoint x="350" y="350" as="sourcePoint" />
            <mxPoint x="450" y="270" as="targetPoint" />
          </mxGeometry>
        </mxCell>
        <mxCell id="W3CRCIAu7P1YZQJP_AFo-30" value="bigdate-gateway" style="shape=process;whiteSpace=wrap;html=1;backgroundOutline=1;" vertex="1" parent="1">
          <mxGeometry x="630" y="330" width="120" height="60" as="geometry" />
        </mxCell>
        <mxCell id="W3CRCIAu7P1YZQJP_AFo-31" value="" style="endArrow=classic;html=1;rounded=0;entryX=0;entryY=0.5;entryDx=0;entryDy=0;" edge="1" parent="1" target="W3CRCIAu7P1YZQJP_AFo-30">
          <mxGeometry width="50" height="50" relative="1" as="geometry">
            <mxPoint x="550" y="360" as="sourcePoint" />
            <mxPoint x="600" y="310" as="targetPoint" />
          </mxGeometry>
        </mxCell>
      </root>
    </mxGraphModel>
  </diagram>
</mxfile>
